<?xml version="1.0" encoding="UTF-8"?>
<svg viewBox="0 0 744.09447 524.40940056693" xmlns="http://www.w3.org/2000/svg">
 <path transform="matrix(.98511 0 0 1.0345 -12.296 -52.291)" d="m602.36 232.09a239.17 150.59 0 1 1 -478.35 0 239.17 150.59 0 1 1 478.35 0z" fill="none" stroke="#000" stroke-linecap="round" stroke-linejoin="round" stroke-width="7.0866"/>
 <path transform="translate(8.8583 -85.925)" d="m531.5 418.11a26.575 17.717 0 1 1 -53.15 0 26.575 17.717 0 1 1 53.15 0z" fill="none" stroke="#000" stroke-linecap="round" stroke-linejoin="round" stroke-width="5.315"/>
 <path transform="matrix(.90909 0 0 .84258 37.044 21.345)" d="m531.5 418.11a26.575 17.717 0 1 1 -53.15 0 26.575 17.717 0 1 1 53.15 0z" fill="none" stroke="#000" stroke-linecap="round" stroke-linejoin="round" stroke-width="5.315"/>
 <path transform="matrix(.76128 0 0 .68374 93.961 122.09)" d="m531.5 418.11a26.575 17.717 0 1 1 -53.15 0 26.575 17.717 0 1 1 53.15 0z" fill="none" stroke="#000" stroke-linecap="round" stroke-linejoin="round" stroke-width="5.315"/>
</svg>
